<svg width="425" height="700" viewBox="0 0 425 700" fill="none" xmlns="http://www.w3.org/2000/svg">
<g clip-path="url(#clip0_803_2)">
<rect width="425" height="700" fill="white"/>
<path fill-rule="evenodd" clip-rule="evenodd" d="M507 0H-859V27.6503C-779.992 49.9323 -686.846 69.6349 -597.271 85.4662C-486.781 104.994 -377.019 108.913 -266.635 112.854L-266.634 112.854C-223.764 114.385 -180.8 115.919 -137.663 118.372C-109.07 119.998 -79.8667 122.067 -50.6982 124.134C37.4077 130.376 125.192 136.596 194.847 130.511C260.23 124.8 291.104 108.243 322.038 91.654C332.394 86.1002 342.757 80.5428 354.424 75.3877C371.711 67.7491 382.257 58.8165 392.752 49.9279C406.591 38.2064 420.339 26.5613 449.338 18.0602C465.566 13.3029 485.231 9.33452 507 5.86685V0Z" fill="#DDDBF2" fill-opacity="0.26"/>
<path d="M286.5 542C372.9 406 453.167 476 482.5 528L482.5 715.5L-56 715.5L-56 461C22.1667 544.667 200.1 678 286.5 542Z" fill="#F6F6FC"/>
</g>
<defs>
<clipPath id="clip0_803_2">
<rect width="425" height="700" fill="white"/>
</clipPath>
</defs>
</svg>
